<?xml version="1.0" encoding="UTF-8" standalone="no"?>
<svg xmlns="http://www.w3.org/2000/svg" version="1.1" viewBox="0 0 479.99998 480" height="512" width="512">
  <g transform="matrix(0.93750014,0,0,0.93750014,-1297.3464,-316.85211)">
    <path d="m 1799.2058,337.97553 c -12.5094,1e-5 -16.1859,0.40993 -23.1354,2.58179 -34.7167,10.8495 -58.1271,41.19831 -61.2452,79.39636 -0.3978,4.87445 0.057,16.80697 1.0768,28.27881 1.9682,22.13379 1.3946,30.24359 -2.7522,38.90808 -3.2603,6.81287 -13.418,16.57104 -21.5075,20.66162 -5.7627,2.91396 -7.5223,3.26143 -16.3715,3.22083 -8.6313,-0.0395 -12.1246,-0.72546 -26.9897,-5.29542 -35.7113,-10.97877 -60.8661,-16.19733 -89.4288,-18.55041 -38.5934,-3.1794 -75.0347,4.94435 -101.4202,22.60986 -34.7498,23.26556 -52.4893,55.50321 -61.0822,110.99854 -2.4843,16.04544 -2.8041,66.47834 -0.5237,82.69409 3.8101,27.09238 10.5549,51.49539 19.389,70.16052 19.8741,41.99024 59.8127,68.88927 112.436,75.72327 8.8315,1.1469 35.7777,0.59882 46.9006,-0.95398 45.488,-6.3499 84.0656,-25.16548 115.1111,-56.14197 14.2096,-14.17791 23.7704,-27.24411 30.8753,-42.19482 21.7512,-45.77093 20.8328,-99.18037 -3.0286,-176.14563 -7.127,-22.98869 -7.5251,-30.89318 -2.1094,-41.90369 4.4049,-8.95488 14.4385,-19.5203 21.7419,-22.89367 4.998,-2.30853 6.4889,-2.43227 24.0565,-2.01234 50.0702,1.19707 54.7226,0.81378 71.2298,-5.85937 15.2137,-6.15035 30.0778,-18.1916 38.9576,-31.56006 31.6023,-47.57729 7.3375,-111.40462 -49.0943,-129.14062 -6.9168,-2.17388 -10.5636,-2.58179 -23.0859,-2.58179 z" style="fill:#006d7a;fill-opacity:1;stroke-width:0.881686" />
    <path d="m 1547.6583,527.21051 c -80.6349,0 -107.5117,18.27765 -107.5117,139.76758 0,121.48991 26.8768,139.76758 107.5117,139.76758 37.0921,0 60.2093,-6.45145 80.6368,-10.75195 l 5.373,-37.63086 c -11.2888,3.76299 -37.0912,16.1289 -86.0098,16.1289 -48.381,0 -64.5078,-13.97716 -64.5078,-107.51367 0,-93.53647 16.1268,-107.51367 64.5078,-107.51367 48.9186,0 74.721,12.36397 86.0098,16.12695 l -5.373,-37.63086 c -20.4275,-4.30052 -43.5447,-10.75 -80.6368,-10.75 z" style="fill:#ffffff;fill-opacity:1;stroke-width:0.881686" />
  </g>
</svg>
