<?xml version="1.0" encoding="UTF-8" standalone="no"?>
<svg xmlns="http://www.w3.org/2000/svg" version="1.1" viewBox="0 0 1014.3856 480" height="512" width="1082.0114">
  <g transform="matrix(0.93750014,0,0,0.93750014,-1297.3464,-316.85211)">
    <g transform="translate(1384.8688,-135.12431)" style="fill:#000000;fill-opacity:1;stroke:none;stroke-width:0.9375" aria-label="trec">
      <path style="fill:#a1c23c;fill-opacity:1;stroke-width:0.9375" d="m 106.48038,909.6195 c -47.305801,0 -64.507913,-18.81481 -64.507913,-107.51319 V 699.96877 H 106.48038 V 667.71481 H 41.972467 V 533.32332 H -1.032811 v 268.78299 c 0,112.88885 29.566129,139.76715 107.513191,139.76715 z" />
      <path style="fill:#a1c23c;fill-opacity:1;stroke-width:0.9375" d="m 316.13046,667.71481 c -17.73967,-2.68783 -39.24231,-5.37566 -64.50791,-5.37566 -80.6349,0 -102.13754,18.27725 -102.13754,139.76716 V 936.4978 h 43.00528 V 802.10631 c 0,-93.53648 10.75132,-107.5132 59.13226,-107.5132 26.34073,0 69.88357,8.06349 69.88357,8.06349 z" />
      <path style="fill:#a1c23c;fill-opacity:1;stroke-width:0.9375" d="m 552.65905,893.49252 c -12.90158,4.30053 -49.45607,16.12698 -96.76188,16.12698 -45.15554,0 -62.35765,-12.36401 -64.50791,-91.38621 h 64.50791 c 80.6349,0 107.5132,-20.42751 107.5132,-77.94707 0,-57.51956 -26.8783,-77.94707 -107.5132,-77.94707 -80.63489,0 -107.51319,18.27725 -107.51319,139.76716 0,121.48991 26.8783,139.76715 107.51319,139.76715 37.62962,0 70.95871,-6.45079 91.38622,-10.75132 z M 455.89717,694.59311 c 48.38094,0 64.50792,11.82645 64.50792,45.69311 0,33.86666 -16.12698,45.69311 -64.50792,45.69311 h -64.50791 c 2.15026,-79.0222 19.35237,-91.38622 64.50791,-91.38622 z" />
    </g>
    <path d="m 2379.6684,337.97553 c -12.5094,1e-5 -16.1859,0.40993 -23.1354,2.58179 -34.7167,10.8495 -58.1271,41.19831 -61.2452,79.39636 -0.3978,4.87445 0.057,16.80697 1.0768,28.27881 1.9682,22.13379 1.3946,30.24359 -2.7522,38.90808 -3.2603,6.81287 -13.418,16.57104 -21.5075,20.66162 -5.7627,2.91396 -7.5223,3.26143 -16.3715,3.22083 -8.6313,-0.0395 -12.1246,-0.72546 -26.9897,-5.29542 -35.7113,-10.97877 -60.8661,-16.19733 -89.4288,-18.55041 -38.5934,-3.1794 -75.0347,4.94435 -101.4202,22.60986 -34.7498,23.26556 -52.4893,55.50321 -61.0822,110.99854 -2.4843,16.04544 -2.8041,66.47834 -0.5237,82.69409 3.8101,27.09238 10.5549,51.49539 19.389,70.16052 19.8741,41.99024 59.8127,68.88927 112.436,75.72327 8.8315,1.1469 35.7777,0.59882 46.9006,-0.95398 45.488,-6.3499 84.0656,-25.16548 115.1111,-56.14197 14.2096,-14.17791 23.7704,-27.24411 30.8753,-42.19482 21.7512,-45.77093 20.8328,-99.18037 -3.0286,-176.14563 -7.127,-22.98869 -7.5251,-30.89318 -2.1094,-41.90369 4.4049,-8.95488 14.4385,-19.5203 21.7419,-22.89367 4.998,-2.30853 6.4889,-2.43227 24.0565,-2.01234 50.0702,1.19707 54.7226,0.81378 71.2298,-5.85937 15.2137,-6.15035 30.0778,-18.1916 38.9576,-31.56006 31.6023,-47.57729 7.3375,-111.40462 -49.0943,-129.14062 -6.9168,-2.17388 -10.5636,-2.58179 -23.0859,-2.58179 z m -251.5467,189.23584 c 37.092,0 60.2085,6.4496 80.636,10.75012 l 5.3741,37.63001 c -11.2888,-3.76298 -37.0916,-16.12611 -86.0101,-16.12611 -48.381,0 -64.508,13.97574 -64.508,107.51221 0,93.53648 16.127,107.51404 64.508,107.51404 48.9185,0 74.7213,-12.36494 86.0101,-16.12792 l -5.3741,37.63 c -20.4275,4.30053 -43.544,10.75195 -80.636,10.75195 -80.6349,0 -107.5122,-18.27814 -107.5122,-139.76807 0,-121.48993 26.8773,-139.76623 107.5122,-139.76623 z" style="fill:#006d7a;fill-opacity:1;stroke-width:0.881686" />
  </g>
</svg>
